<?xml version="1.0"?>
<svg xmlns="http://www.w3.org/2000/svg" xmlns:xlink="http://www.w3.org/1999/xlink" xmlns:svgjs="http://svgjs.com/svgjs" version="1.1" width="512" height="512" x="0" y="0" viewBox="0 0 502.493 502.493" style="enable-background:new 0 0 512 512" xml:space="preserve" class=""><g>
<linearGradient xmlns="http://www.w3.org/2000/svg" id="SVGID_1_" gradientUnits="userSpaceOnUse" x1="-47.0025" y1="564.4789" x2="20.7395" y2="632.2209" gradientTransform="matrix(8 0 0 -8 365.6834 5028.668)">
	<stop offset="0" style="stop-color:#003F8A"/>
	<stop offset="0.518" style="stop-color:#00D7DF"/>
	<stop offset="1" style="stop-color:#006DF0"/>
</linearGradient>
<path xmlns="http://www.w3.org/2000/svg" style="fill:url(#SVGID_1_);" d="M491.528,0.597L5.032,192.941c-4.101,1.644-6.093,6.301-4.448,10.402  c0.775,1.933,2.273,3.488,4.176,4.334l200.8,89.264l89.264,200.8c1.283,2.887,4.145,4.749,7.304,4.752h0.168  c3.226-0.065,6.097-2.062,7.28-5.064L501.911,10.973c1.642-4.102-0.352-8.758-4.454-10.4c-1.908-0.764-4.037-0.764-5.946,0  L491.528,0.597z M301.704,473.861l-82.776-186.232c-0.804-1.807-2.249-3.252-4.056-4.056L28.64,200.797l451.6-178.536  L301.704,473.861z" fill=""/>
<g xmlns="http://www.w3.org/2000/svg">
</g>
<g xmlns="http://www.w3.org/2000/svg">
</g>
<g xmlns="http://www.w3.org/2000/svg">
</g>
<g xmlns="http://www.w3.org/2000/svg">
</g>
<g xmlns="http://www.w3.org/2000/svg">
</g>
<g xmlns="http://www.w3.org/2000/svg">
</g>
<g xmlns="http://www.w3.org/2000/svg">
</g>
<g xmlns="http://www.w3.org/2000/svg">
</g>
<g xmlns="http://www.w3.org/2000/svg">
</g>
<g xmlns="http://www.w3.org/2000/svg">
</g>
<g xmlns="http://www.w3.org/2000/svg">
</g>
<g xmlns="http://www.w3.org/2000/svg">
</g>
<g xmlns="http://www.w3.org/2000/svg">
</g>
<g xmlns="http://www.w3.org/2000/svg">
</g>
<g xmlns="http://www.w3.org/2000/svg">
</g>
</g></svg>
