<svg id="_x30_1" enable-background="new 0 0 62 62.414" height="512" viewBox="0 0 62 62.414" width="512" xmlns="http://www.w3.org/2000/svg"><g><g><g><path d="m9 51.414h6v6h-6z" fill="#dfb28b"/></g><g><path d="m15 57.414v4h-3c-1.66 0-3-1.34-3-3v-1z" fill="#d3a06c"/></g><g><path d="m15 48.734v.32 2.36h-6v-1c0-1.33.86-2.45 2.06-2.84.29-.11.61-.16.94-.16h3.16.01c-.11.42-.17.86-.17 1.32z" fill="#d3a06c"/></g><g><path d="m9.14 15.754-2.25.91c-1.14.45-1.89 1.55-1.89 2.78v3.97h-1c-.46 0-.89.1-1.28.29l-.56-1.4c-.77-1.91-1.16-3.95-1.16-6 0-3.19.94-6.31 2.71-8.96l1.29-1.93 4 1 3-4 4 2 3-3 3 3 4-2 3 4 4-1 1.29 1.93c.89 1.33 1.56 2.77 2.02 4.28.45 1.51.69 3.09.69 4.68 0 2.05-.39 4.09-1.16 6l-.56 1.4c-.39-.19-.82-.29-1.28-.29h-1v-3.97c0-1.23-.75-2.33-1.89-2.78l-2.25-.91c-.12.36-.32.68-.58.94-.45.44-1.07.72-1.75.72h-15.06c-1.08 0-1.99-.69-2.33-1.66z" fill="#656d78"/></g><g><path d="m19.78 43.444c-1.88.47-2.62.93-3.22 1.53-.66.66-1.15 1.5-1.39 2.44h-.01-3.16c-.33 0-.65.05-.94.16v-.01c.27-2.08 1.54-3.91 3.43-4.89v-.01c1.41.49 2.93.75 4.51.75.26 0 .52-.01.78-.02z" fill="#aab2bd"/></g><g><path d="m48.49 45.004c.32.26.51.65.51 1.06 0 .75-.6 1.35-1.35 1.35h-10.65v-8.65c0-.75.6-1.35 1.35-1.35h.18c.3 0 .6.1.84.3z" fill="#b4dd7f"/></g><g><path d="m23.41 42.704c4.36 1.08 7.59 5.02 7.59 9.71v2.2l-4-3.2-1.71-4.55c-.77-2.08-2.76-3.45-4.97-3.45-.18 0-.37.01-.54.03v-.05z" fill="#fcd770"/></g><g><path d="m15.65 51.604c1 1.84 2.29 3.47 3.79 4.85.96.88 2.01 1.66 3.13 2.32 2.8 1.67 6.05 2.61 9.43 2.64h-17v-4-6-2.36c0 .89.22 1.77.65 2.55z" fill="#fcd770"/></g><g><path d="m25.29 46.864 1.71 4.55-7.56 5.04c-1.5-1.38-2.79-3.01-3.79-4.85-.43-.78-.65-1.66-.65-2.55v-.32c0-.46.06-.9.17-1.32.24-.94.73-1.78 1.39-2.44.6-.6 1.34-1.06 3.22-1.53.17-.02.36-.03.54-.03 2.21 0 4.2 1.37 4.97 3.45z" fill="#fcd770"/></g><g><path d="m38 55.414c.83 0 1.58.34 2.12.88s.88 1.29.88 2.12c0 1.66-1.34 3-3 3h-5.83c-.06 0-.11 0-.17 0-3.38-.03-6.63-.97-9.43-2.64-1.12-.66-2.17-1.44-3.13-2.32l7.56-5.04 4 3.2 1 .8 1.41-1.41c.38-.38.89-.59 1.42-.59h.17c.55 0 1.05.22 1.41.59.37.36.59.86.59 1.41z" fill="#f0d0b4"/></g><g><path d="m35.28 23.704c1.02.48 1.72 1.51 1.72 2.71 0 .83-.34 1.58-.88 2.12s-1.29.88-2.12.88h-1v-6h1c.46 0 .89.1 1.28.29z" fill="#f0d0b4"/></g><g><path d="m7 21.414c-1.1 0-2 .9-2 2v-3.97c0-1.23.75-2.33 1.89-2.78l2.25-.91c.34.97 1.25 1.66 2.33 1.66h15.06c.68 0 1.3-.28 1.75-.72.26-.26.46-.58.58-.94l2.25.91c1.14.45 1.89 1.55 1.89 2.78v3.97c0-1.1-.9-2-2-2h-8c-1.1 0-2 .9-2 2v6c0 1.1.9 2 2 2h8c1.03 0 1.89-.79 1.99-1.8-.04 3.79-1.6 7.21-4.09 9.7-1.53 1.52-3.4 2.69-5.49 3.39l-3.63.69c-.26.01-.52.02-.78.02-1.58 0-3.1-.26-4.51-.75-5.46-1.85-9.4-6.99-9.48-13.05.1 1.01.96 1.8 1.99 1.8h8c1.1 0 2-.9 2-2v-6c0-1.1-.9-2-2-2z" fill="#f0d0b4"/></g><g><path d="m5 23.414v6h-1c-.83 0-1.58-.34-2.12-.88s-.88-1.29-.88-2.12c0-1.2.7-2.23 1.72-2.71.39-.19.82-.29 1.28-.29z" fill="#f0d0b4"/></g><g><path d="m23 21.414h8c1.1 0 2 .9 2 2v6c0 .07 0 .13-.01.2-.1 1.01-.96 1.8-1.99 1.8h-8c-1.1 0-2-.9-2-2v-6c0-1.1.9-2 2-2z" fill="#69d6f4"/></g><g><path d="m7 21.414h8c1.1 0 2 .9 2 2v6c0 1.1-.9 2-2 2h-8c-1.03 0-1.89-.79-1.99-1.8-.01-.07-.01-.13-.01-.2v-6c0-1.1.9-2 2-2z" fill="#69d6f4"/></g><g><path d="m61 13.414c0 1.29-.23 2.56-.66 3.76-.44 1.2-1.08 2.32-1.9 3.31l-7.44 8.93-7.44-8.93c-1.65-1.98-2.56-4.49-2.56-7.07 0-2.76 1.12-5.26 2.93-7.07s4.31-2.93 7.07-2.93 5.26 1.12 7.07 2.93 2.93 4.31 2.93 7.07z" fill="#ff826e"/></g><g><circle cx="51" cy="13.414" fill="#ffeaa7" r="6"/></g></g><g><path d="m24.895 35.861-1.789-.895c-.446.893-1.344 1.447-2.342 1.447h-4.764v2h4.764c1.759.001 3.342-.977 4.131-2.552z"/><path d="m8.5 25.611h2v3.606h-2z" transform="matrix(.555 -.832 .832 .555 -18.58 20.112)"/><path d="m11.5 23.611h2v3.606h-2z" transform="matrix(.555 -.832 .832 .555 -15.58 21.718)"/><path d="m24.5 25.611h2v3.606h-2z" transform="matrix(.555 -.832 .832 .555 -11.455 33.425)"/><path d="m27.5 23.611h2v3.606h-2z" transform="matrix(.555 -.832 .832 .555 -8.455 35.03)"/><path d="m39.995 36.929c-.415-.332-.937-.515-1.469-.515h-.176c-1.296 0-2.351 1.055-2.351 2.351v13.825c-.314-.111-.649-.176-1-.176h-.172c-.801 0-1.555.313-2.121.879l-.706.707v-1.586c0-4.194-2.352-7.917-5.946-9.769 4.445-2.379 7.543-6.933 7.895-12.231h.051c2.206 0 4-1.794 4-4 0-1.25-.588-2.353-1.488-3.087l.261-.653c.814-2.034 1.227-4.177 1.227-6.37 0-3.397-.996-6.687-2.88-9.513l-1.679-2.518-4.04 1.01-3.103-4.136-4.102 2.051-3.196-3.198-3.197 3.197-4.102-2.051-3.102 4.137-4.04-1.01-1.679 2.518c-1.884 2.826-2.88 6.115-2.88 9.513 0 2.193.413 4.336 1.227 6.37l.261.653c-.9.734-1.488 1.837-1.488 3.087 0 2.206 1.794 4 4 4h.051c.365 5.493 3.691 10.176 8.401 12.474-1.154 1.049-1.953 2.442-2.279 3.988-1.284.667-2.173 1.994-2.173 3.538v8c0 2.206 1.794 4 4 4h20v-.006c.059 0 .116.006.175.006h5.825c2.206 0 4-1.794 4-4s-1.794-4-4-4v-6h9.649c1.296 0 2.351-1.055 2.351-2.351 0-.719-.321-1.388-.882-1.836zm-9.995 15.485v.12l-2.16-1.728-1.609-4.294c-.332-.885-.859-1.659-1.513-2.295 3.175 1.433 5.282 4.604 5.282 8.197zm-13.473-1.288c-.344-.633-.527-1.348-.527-2.067v-.329c0-2.38 1.937-4.316 4.316-4.316 1.789 0 3.413 1.125 4.041 2.8l1.428 3.808-6.227 4.151c-1.179-1.183-2.207-2.537-3.031-4.047zm-2.527 5.288h-4v-4h4zm17-26h-8c-.552 0-1-.449-1-1v-6c0-.551.448-1 1-1h8c.552 0 1 .449 1 1v6c0 .551-.448 1-1 1zm-11-7v1h-2v-1c0-1.654-1.346-3-3-3h-8c-.352 0-.686.072-1 .184v-1.153c0-.823.493-1.552 1.257-1.857l1.443-.577c.634.846 1.635 1.403 2.771 1.403h15.057c1.136 0 2.138-.557 2.771-1.403l1.443.577c.765.306 1.258 1.035 1.258 1.857v1.153c-.314-.112-.648-.184-1-.184h-8c-1.654 0-3 1.346-3 3zm-14 6v-6c0-.551.448-1 1-1h8c.552 0 1 .449 1 1v6c0 .551-.448 1-1 1h-8c-.552 0-1-.449-1-1zm28-1v-4c1.103 0 2 .897 2 2s-.897 2-2 2zm-30.916-6.484c-.72-1.796-1.084-3.689-1.084-5.626 0-3.001.88-5.907 2.544-8.403l.897-1.345 3.96.99 2.897-3.864 3.898 1.949 2.804-2.803 2.803 2.803 3.898-1.949 2.897 3.864 3.96-.99.898 1.344c1.664 2.497 2.544 5.403 2.544 8.404 0 1.937-.364 3.83-1.084 5.626l-.222.554c-.227-.04-.457-.07-.694-.07v-2.969c0-1.645-.987-3.103-2.515-3.714l-1.504-.602c.003-.063.019-.123.019-.187 0-1.324-.735-2.514-1.919-3.105l-.634-.317-.895 1.789.634.317c.502.25.814.755.814 1.316 0 .812-.66 1.472-1.472 1.472h-15.056c-.812 0-1.472-.661-1.472-1.472 0-.561.312-1.065.813-1.316l.634-.317-.895-1.789-.634.317c-1.183.591-1.918 1.781-1.918 3.105 0 .064.016.124.019.188l-1.504.602c-1.528.61-2.515 2.068-2.515 3.713v2.969c-.238 0-.468.03-.694.07zm-1.084 4.484c0-1.103.897-2 2-2v4c-1.103 0-2-.897-2-2zm4.343 5.923c.212.048.43.077.657.077h8c1.654 0 3-1.346 3-3v-3h2v3c0 1.654 1.346 3 3 3h8c.226 0 .445-.03.657-.077-1.332 5.763-6.495 10.077-12.657 10.077s-11.325-4.314-12.657-10.077zm9.676 11.778c-.682.636-1.224 1.418-1.573 2.299h-2.067c.432-1.099 1.218-2.031 2.238-2.657.459.141.926.261 1.402.358zm-4.019 4.299h2.016c-.005.106-.016.21-.016.316v.328 1.355h-4c0-1.101.897-1.999 2-1.999zm-2 10h4v2h-2c-1.103 0-2-.897-2-2zm6 2v-6.378c1.948 2.754 4.541 4.933 7.512 6.378zm24-2c0 1.103-.897 2-2 2h-5.825c-4.095 0-7.98-1.402-11.079-3.862l5.851-3.901 5.128 4.102 2.047-2.047c.187-.187.444-.293.707-.293h.171c.552 0 1 .448 1 1v1h2c1.103.001 2 .899 2 2.001zm7.649-12h-9.649v-7.649c0-.193.157-.351.351-.351h.176c.079 0 .157.027.219.077l9.124 7.299c.081.065.13.168.13.273 0 .194-.157.351-.351.351z"/><path d="m48 34.414h2v2h-2z"/><path d="m52 34.414h2v2h-2z"/><path d="m56 34.414h2v2h-2z"/><path d="m51 2.414c-6.065 0-11 4.935-11 11 0 2.813.991 5.552 2.792 7.713l8.208 9.849 8.208-9.849c1.801-2.161 2.792-4.9 2.792-7.713 0-6.065-4.935-11-11-11zm6.671 17.433-6.671 8.005-6.671-8.005c-1.502-1.803-2.329-4.087-2.329-6.433 0-4.962 4.037-9 9-9s9 4.038 9 9c0 2.346-.827 4.63-2.329 6.433z"/><path d="m51 6.414c-3.859 0-7 3.14-7 7s3.141 7 7 7 7-3.14 7-7-3.141-7-7-7zm0 12c-2.757 0-5-2.243-5-5s2.243-5 5-5 5 2.243 5 5-2.243 5-5 5z"/></g></g></svg>